<svg 
    xmlns="http://www.w3.org/2000/svg" 
    viewBox="0 0 512 393.6">
    <g id="Layer_2" data-name="Layer 2">
    <g id="Layer_1-2" data-name="Layer 1">
    <path d="M175.5,82.8a50.5,50.5,0,1,0,35.87,86,4.13,4.13,0,0,0-.2-5.82l-8-7.86a7.26,7.26,0,0,0,.53-7.93,21.62,21.62,0,0,0-8.54-8.84,8.17,8.17,0,0,0-4.15-1.23,6.48,6.48,0,0,0-1.57.19,13.93,13.93,0,0,0-5.06,2.46,3.13,3.13,0,0,1-1.92.59,4.57,4.57,0,0,1-2.58-.82,61.45,61.45,0,0,1-12.73-12.73,4.1,4.1,0,0,1-.23-4.51,13.89,13.89,0,0,0,2.46-5,7.54,7.54,0,0,0-1-5.72,21.66,21.66,0,0,0-8.83-8.54,7.9,7.9,0,0,0-3.67-1,7.56,7.56,0,0,0-5.54,2.58,58,58,0,0,0-4.21,5.16c-1.36,1.81-1.25,3.9-1.15,5.75v0a23.92,23.92,0,0,0,2.68,8.47,62.82,62.82,0,0,0,12,16.49c1.09,1.11,5.44,5.46,6.55,6.55a63,63,0,0,0,16.49,12,23.92,23.92,0,0,0,8.47,2.68h0c.48,0,1,0,1.5,0a7,7,0,0,0,4.11-1.11l5.25,5.16a42,42,0,1,1,15.5-32.57,4.23,4.23,0,1,0,8.45,0A50.56,50.56,0,0,0,175.5,82.8Z"/><path d="M386,116.69a1.19,1.19,0,0,0-.09-.36,1.37,1.37,0,0,0-.13-.31,2.61,2.61,0,0,0-.22-.27,2.68,2.68,0,0,0-.3-.28s-.05,0-.09-.08L363.5,102.07V88.27c0-3-3-5.35-6.75-5.35H332.36l-9.76-6a8.1,8.1,0,0,0-8.21,0l-9.76,6H280.24c-3.72,0-6.75,2.4-6.75,5.35v13.8l-21.63,13.32s-.05.06-.09.09a1.93,1.93,0,0,0-.3.27,2.61,2.61,0,0,0-.22.27,1.37,1.37,0,0,0-.13.31,1.19,1.19,0,0,0-.09.36s0,.07,0,.1v60.63a4.63,4.63,0,0,0,1.32,3.15l0,.05.07,0a7.49,7.49,0,0,0,5.32,2.1H379.25a7.49,7.49,0,0,0,5.34-2.11s0,0,.06,0l0-.05a4.63,4.63,0,0,0,1.32-3.15V116.8A.45.45,0,0,0,386,116.69Zm-68.82-37a2.63,2.63,0,0,1,2.68,0L325,82.92H312ZM258.31,179.2,317.15,143a2.63,2.63,0,0,1,2.68,0l58.85,36.21Zm123.19-2.78-58.9-36.24a8.1,8.1,0,0,0-8.21,0l-58.9,36.24v-56.9l36.88,22.68a2.64,2.64,0,0,0,3.15-.31,1.55,1.55,0,0,0-.4-2.51l-37.46-23,15.83-9.75v13.78a2.31,2.31,0,0,0,4.5,0V88.27a2.06,2.06,0,0,1,2.25-1.78h76.51A2.06,2.06,0,0,1,359,88.27v32.1a2.31,2.31,0,0,0,4.5,0V106.59l15.83,9.75L341.8,139.43a1.63,1.63,0,0,0-.87,1.65,1.92,1.92,0,0,0,1.39,1.42,2.73,2.73,0,0,0,2.24-.26l36.94-22.72v56.9Z"/><path d="M345.5,118.58v-7.13c0-11.82-12.09-21.39-27-21.39s-27,9.57-27,21.39,12.09,21.4,27,21.4a1.83,1.83,0,1,0,0-3.57c-12.43,0-22.5-8-22.5-17.83s10.07-17.83,22.5-17.83,22.5,8,22.5,17.83v7.13c0,2-2,3.57-4.5,3.57s-4.5-1.6-4.5-3.57v-7.13a2.31,2.31,0,0,0-4.5,0c0,3.94-4,7.13-9,7.13s-9-3.19-9-7.13,4-7.13,9-7.13a1.83,1.83,0,1,0,0-3.57c-6.05,0-11.36,3.16-13,7.77s.75,9.52,5.89,12a16.3,16.3,0,0,0,16.22-1.22c.49,3.77,4.63,6.58,9.41,6.38S345.51,122.37,345.5,118.58Z"/><path d="M512,356.86a1.62,1.62,0,0,1,0-.22,6.07,6.07,0,0,0-.14-.87.29.29,0,0,0,0-.09,6.77,6.77,0,0,0-.22-.77c0-.06,0-.13-.07-.2s-.18-.44-.28-.66a1.17,1.17,0,0,0-.05-.11l-40.11-79.12V14.52A14.54,14.54,0,0,0,456.56,0H55.44A14.54,14.54,0,0,0,40.92,14.52v260.3L.81,353.94a1.17,1.17,0,0,0-.05.11c-.1.22-.2.44-.28.66l-.08.2c-.08.25-.15.51-.21.77a.31.31,0,0,0,0,.08,6.45,6.45,0,0,0-.14.88,1.62,1.62,0,0,1,0,.22c0,.16,0,.31,0,.47v19A17.27,17.27,0,0,0,17.24,393.6H494.76A17.27,17.27,0,0,0,512,376.35v-19C512,357.17,512,357,512,356.86ZM55.92,15H456.08V269.11H55.92ZM53,284.11H459l33.32,65.72H327.51l-8.27-30a14.17,14.17,0,0,0-13.62-10.37H206.38a14.15,14.15,0,0,0-13.62,10.37l-8.27,30H19.71ZM312,349.83H200.05l7-25.36H305ZM497,376.35a2.25,2.25,0,0,1-2.24,2.25H17.24A2.25,2.25,0,0,1,15,376.35V364.83H497Z"/>
    <path d="M428.32,31H83.68A11.78,11.78,0,0,0,71.92,42.76v79.3a7.5,7.5,0,0,0,15,0V46H425.08v76.06a7.5,7.5,0,0,0,15,0V42.76A11.78,11.78,0,0,0,428.32,31Z"/>
    <path d="M432.58,154.55a7.5,7.5,0,0,0-7.5,7.5v76.06H86.92V162.06a7.5,7.5,0,0,0-15,0v79.29a11.78,11.78,0,0,0,11.76,11.76H428.32a11.77,11.77,0,0,0,11.76-11.76V162.06A7.5,7.5,0,0,0,432.58,154.55Z"/>
    </g></g>
</svg>