<svg xmlns="http://www.w3.org/2000/svg" viewBox="0 0 330.87 341.11"><defs><style>.cls-1{fill:#ffc800;}.cls-2{fill:#f90;}.cls-3{fill:#10adb8;}.cls-4{fill:#d15ac5;}.cls-5{fill:#ad32a0;}.cls-10,.cls-12,.cls-13,.cls-15,.cls-6,.cls-8{fill:none;}.cls-6,.cls-8{stroke:#fff;}.cls-10,.cls-12,.cls-13,.cls-6,.cls-8{stroke-miterlimit:10;}.cls-6{stroke-width:1.16px;}.cls-7{fill:#fff;}.cls-9{fill:#0978b0;}.cls-10{stroke:#ffc800;stroke-width:1.13px;}.cls-11{fill:#d81313;}.cls-12{stroke:#0978b0;stroke-width:3px;}.cls-13{stroke:#d15ac5;stroke-width:2px;}.cls-14{fill:#d1d3d4;}.cls-15{stroke:#10adb8;stroke-linecap:round;stroke-linejoin:round;stroke-width:5px;}</style></defs><title>Asset 1</title><g id="Layer_2" data-name="Layer 2"><g id="OBJECTS"><path class="cls-1" d="M323.42,192c13.18,38.57-6.7,81.15-42.32,104.91-37,24.65-83,25.78-126.54,22-3.72-.32-7.43-.69-11.15-1.08-27.4-2.9-55.51-9.27-79-23.36-24.83-14.92-55.1-43.69-55.51-73.28-.33-23.27,5-48,29.14-59.38,13-6.1,27.84-6.4,41.25-11.15,12.68-4.49,22-14.43,28.6-25.23,7.76-12.67,12.8-26.79,21.68-38.8,20.93-28.28,62.22-40.8,96.46-27.74,17.42,6.64,31,19.43,40,34.74,9.9,16.78,12.22,37,24.84,52.37C303,160.74,317.22,173.87,323.42,192Z"/><path class="cls-2" d="M159.27,296.66c-5.81-3.54-11.3-7.64-16.87-11.78-10.54-7.83-20.5-14-33.79-16.73-13.51-2.8-27.73-3.1-40.56-8.4-17.5-7.21-29.67-23.22-35.17-40.43s-5.07-35.59-3-53.45c-14,13.79-21.85,32.95-21.29,52,1,33,27.76,59.7,55.83,76.57,23.46,14.09,51.57,20.46,79,23.36,3.72.39,7.43.76,11.15,1.08,31.68,2.78,65.36,3.33,95.68-7.07-6.44,2.21-16.11-.44-22.67-1.05-15.9-1.48-32-1.34-47.58-5.16A73.33,73.33,0,0,1,159.27,296.66Z"/><path class="cls-1" d="M281.1,296.93a126.82,126.82,0,0,1-29.17,14.34c-31.21,4.8-62.09-3-86.7-22.55-15-12.22-24-31-43-36.67-23-6.58-49,.94-68-13.16-22.7-17.68-28.57-46-23.62-72.76a49,49,0,0,1,7.46-4.34c13-6.1,27.84-6.4,41.25-11.15,12.68-4.49,22-14.43,28.59-25.23,5.55-9,9.7-18.84,14.86-28.08a99,99,0,0,1,6.83-10.72c20.92-28.28,62.22-40.8,96.46-27.74a77.34,77.34,0,0,1,31.8,23,87.23,87.23,0,0,1,8.24,11.71c9.9,16.78,12.22,37,24.83,52.37,12.07,14.76,26.29,27.89,32.49,46C336.6,230.59,316.72,273.17,281.1,296.93Z"/><path class="cls-2" d="M257.86,81.9a25.29,25.29,0,0,1-21.25,7.66,13.36,13.36,0,0,1-23.43-9.63c-.55,11.11-10.91,20.8-22,20.61-10.77-.17-20.52-9.59-21.28-20.28a8.7,8.7,0,0,1-15,6,20.38,20.38,0,0,1-19,16,19.92,19.92,0,0,1-13.15-4.88,99,99,0,0,1,6.83-10.72c20.92-28.28,62.22-40.8,96.46-27.74A77.34,77.34,0,0,1,257.86,81.9Z"/><path class="cls-1" d="M203.81,66.1c-.26-1.1-2-.63-1.7.47.93,3.72-1,8.05-4.85,9.21a7.88,7.88,0,0,1-8.94-3.65.83.83,0,0,0-1.54.41A12.54,12.54,0,0,1,170,83.38c-2.67-.9-4.23-2.67-6.37-4.33a.41.41,0,0,0-.65.5c2.23,5.11,10.16,6.8,15,5.45a14.75,14.75,0,0,0,10-10.46,9.41,9.41,0,0,0,10.26,2.64C202.67,75.48,204.83,70.53,203.81,66.1Z"/><path class="cls-2" d="M297.61,275.06c-4.15,7.15-7,13.18-13.86,18.41-5.85,4.47-12.49,7.77-18.43,12.1a108.42,108.42,0,0,1-39.4,17.52c-8.13,1.89-13-4.39-8.43-11,4.35-6.28,11.51-10.09,15.28-16.87,7.53-13.54-2.2-31.42,3.9-45.66,1.38-3.2,4.45-6.43,7.82-5.53,4.15,1.12,4.38,6.87,3.62,11.1-1,5.38.68,15.12,8.38,11.65,14.08-6.35,7-31.31,4.21-41.51-1.9-6.85-1.24-13.11-1.71-20.08-.24-3.55.74-7.83,4.08-9s6.74,1.37,8.15,4.46,1.38,6.63,1.85,10a7.76,7.76,0,0,0,1.49,4.09,3.15,3.15,0,0,0,3.95.85c1.23-.82,1.39-2.54,1.44-4a107.27,107.27,0,0,0-1.55-24.41c-1.5-7.93-4.76-17.18-4.76-25.23-.8-4.25-1.41-9.21,1.56-12.35,3.69-3.92,10.77-2,13.91,2.38s3.45,10.1,3.64,15.48c.47,13,2.35,26.55,1.59,39.45a4.78,4.78,0,0,0,.49,3c1.21,1.73,4.17,1,5.29-.84s1-4.06,1.08-6.17.53-4.47,2.29-5.65c2.14-1.43,5.25-.23,6.68,1.91s1.57,4.87,1.45,7.43c-.55,12.07-3.9,25.55-13,34-5.11,4.74-11,8.25-15.43,13.71-4.67,5.75-5.37,12.06-6.86,19.19,2.33,1.83,5.87.7,8-1.31s3.57-4.75,5.71-6.78,5.65-3.25,8-1.5a5.79,5.79,0,0,1,1.89,5.59A17,17,0,0,1,297.61,275.06Z"/><path class="cls-1" d="M302.53,212.42c-2.56,3-4.43,6.65-6.5,10l-7,11.26c-3.23,5.21-6.58,10.38-9.76,15.64a161.8,161.8,0,0,0,9.87-54.22c.13-16.59-2-33.7-7.56-49.39a.46.46,0,0,0-.89.25c3.79,14.39,6.47,28.86,6.79,43.78a161.76,161.76,0,0,1-4.87,43.11,156.22,156.22,0,0,1-7.5,22.3c-2.95-15.25-6.6-30.38-9.91-45.55-.14-.65-1.13-.37-1,.28,3.23,16,6.08,32,9.76,47.91a160.89,160.89,0,0,1-26.31,41c-.12-12.5-2-25.37-6.35-37-.21-.56-1.08-.35-.92.25,3.46,12.78,5.72,25.4,5.62,38.61l-1.14,1.25a147.41,147.41,0,0,1-13.77,13,144.53,144.53,0,0,1-42.37-1.9,142.37,142.37,0,0,1-28.63-8.73c-9.26-3.94-18.05-8.91-27.47-12.48-18.79-7.11-39.51-5.74-58.29-12.88A87.27,87.27,0,0,1,32.94,246C21,228,16.53,206,19.35,184.75c.08-.63-1-.78-1.12-.15-6.39,37.11,13.27,74.83,46.55,92A93.3,93.3,0,0,0,91,285.24c10.61,1.92,21.43,2.71,31.91,5.36,10.72,2.72,20.45,7.91,30.4,12.59a150.35,150.35,0,0,0,28.39,10.17,147.15,147.15,0,0,0,46.72,3.71c-4.56,3.65-9.29,7.09-14.17,10.41a.72.72,0,0,0-1.21-.32c-.73.86-1.46,1.72-2.15,2.61s.14,2.08,1.16,1.5a126.93,126.93,0,0,0,20.29-14.58,143.24,143.24,0,0,0,17.23-3c1.15-.28.66-2-.48-1.77q-7.08,1.6-14.25,2.5c2.7-2.44,5.32-4.94,7.83-7.49q1.65-1.7,3.27-3.42a.84.84,0,0,0,1.06.74l16.82-7,8.18-3.4c2.6-1.09,5.45-2,7.84-3.46a.69.69,0,0,0-.52-1.25c-2.81.67-5.56,2.14-8.23,3.25l-8.18,3.41-15.28,6.38c0-.18,0-.37,0-.55A164,164,0,0,0,266.58,276a160,160,0,0,0,10.46-21c4.49-6.63,8.6-13.54,12.84-20.33l6.78-10.83c2.22-3.55,4.9-7.1,6.57-10.95C303.41,212.54,302.89,212,302.53,212.42Z"/><path class="cls-1" d="M158.48,318.53a238.11,238.11,0,0,0-46.91-19.47Q99.42,295.43,87,293c-8.26-1.6-16.81-3.15-25.25-3.29-.38,0-.48.6-.09.67,8.3,1.5,16.67,2.4,24.95,4.07q12.18,2.46,24.11,6.08a282,282,0,0,1,47,19.37C158.58,320.38,159.38,319,158.48,318.53Z"/><path class="cls-3" d="M213.81,321.84a80.67,80.67,0,0,1-45.21,8.86c-.94-.09-1.92-.21-2.94-.37a15.26,15.26,0,0,0,3.44-8.25c.45-5.14-3.38-9.7-7.39-11.54-3.63-1.67-7.25-1.18-9.69,1.32a9,9,0,0,0-2.44,6.57,12.65,12.65,0,0,0,3.88,8.75,19.21,19.21,0,0,0,8.28,4.37,28.46,28.46,0,0,1-9.55,5.28c-16.92,5.61-37.44.7-53.57-12.84C86,313.41,75.9,298.18,66.8,276.07c-2.95-7.17-5.65-14.59-8.26-21.78-3.73-10.29-7.58-20.9-12.28-31a47.18,47.18,0,0,0,8.62-18.51c2.48-10.69,1.94-22,1.18-32.67l-.2-2.74c-.72-9.72-1.46-19.78-.1-29.51,3.43-24.41,21.28-46.52,44.42-55,7.79-2.86,14.68-3.57,20.49-2.11A21,21,0,0,0,113,91.5a16,16,0,0,0,.64,13.83,11.08,11.08,0,0,0,18,3.09,14.4,14.4,0,0,0,4.69-11.5c-.52-6-4.85-11.65-11-14.6a37.62,37.62,0,0,1,7.36-2.56,100.56,100.56,0,0,1,11.64-1.83,109.74,109.74,0,0,0,11.66-1.82,54.41,54.41,0,0,0,36.18-29.4c5.86-12.56,6.44-32.28,1.95-46.71h-2.11c4.48,13.94,4,33.75-1.65,45.87a52.37,52.37,0,0,1-34.83,28.29,106,106,0,0,1-11.43,1.78,104.1,104.1,0,0,0-11.87,1.87A38.41,38.41,0,0,0,123,81.32c-.45-.15-.9-.29-1.35-.41-6.31-1.71-13.75-1-22.14,2-23.81,8.73-42.18,31.48-45.71,56.6-1.39,9.94-.64,20.11.08,29.94l.2,2.73c.79,11,1.29,21.65-1.13,32.08a45.52,45.52,0,0,1-7.63,16.92c-3.2-6.69-7.36-14.13-13.87-19.07-6-4.57-15.56-7.21-23.24-2.8a16.92,16.92,0,0,0-8,12.72A20.43,20.43,0,0,0,5.49,229c7.56,7.6,21,8.77,31.32,2.7a33.71,33.71,0,0,0,8-6.71c4.48,9.78,8.2,20.05,11.81,30,2.62,7.21,5.32,14.66,8.29,21.87,9.22,22.41,19.52,37.88,32.38,48.68,12.09,10.14,26.59,15.59,40.36,15.59a48,48,0,0,0,15.13-2.38,29.42,29.42,0,0,0,11.26-6.65c1.5.29,3,.47,4.32.61a82.61,82.61,0,0,0,46.34-9.09ZM123.15,83.52c6.23,2.43,10.74,7.78,11.24,13.57a12.35,12.35,0,0,1-4.06,9.86,9.09,9.09,0,0,1-14.91-2.57,14.16,14.16,0,0,1-.58-12.06A19.78,19.78,0,0,1,123.15,83.52ZM35.79,230c-9.53,5.61-21.95,4.59-28.88-2.39a18.41,18.41,0,0,1-4.74-15.23,15,15,0,0,1,7-11.25,15.48,15.48,0,0,1,7.78-2,22.66,22.66,0,0,1,13.25,4.67c6.25,4.74,10.29,12.06,13.41,18.6l.29.62A31.87,31.87,0,0,1,35.79,230ZM163.41,329.9a18.08,18.08,0,0,1-8.57-4.17,10.78,10.78,0,0,1-3.26-7.34,7.08,7.08,0,0,1,1.88-5.14,5.44,5.44,0,0,1,4-1.68,8.37,8.37,0,0,1,3.4.79c3.37,1.55,6.59,5.32,6.22,9.54A13.61,13.61,0,0,1,163.41,329.9Z"/><path class="cls-4" d="M229.53,180.66v55.2a12.09,12.09,0,0,1-12.07,12.07H135.93l-19.84,19.85V247.93h-3.33a12.06,12.06,0,0,1-12.07-12.07v-55.2a12.06,12.06,0,0,1,12.07-12.07h104.7A12.06,12.06,0,0,1,229.53,180.66Z"/><path class="cls-5" d="M229.53,180.66v55.2a11.92,11.92,0,0,1-1.17,5.17l-6.55-6.55H140.28a12.07,12.07,0,0,1-12.07-12.08V168.59h89.25A12.06,12.06,0,0,1,229.53,180.66Z"/><path class="cls-3" d="M254.26,148.16H149.56a12.08,12.08,0,0,0-12.08,12.08v55.2a12.08,12.08,0,0,0,12.08,12.08h81.52l19.85,19.84V227.52h3.33a12.07,12.07,0,0,0,12.07-12.08v-55.2A12.07,12.07,0,0,0,254.26,148.16Z"/><path class="cls-6" d="M260.87,214V163.42a11,11,0,0,0-11.05-11H154"/><path class="cls-7" d="M178.94,206.58a5.28,5.28,0,1,1-5.28-5.29A5.27,5.27,0,0,1,178.94,206.58Z"/><path class="cls-7" d="M207.19,206.58a5.29,5.29,0,1,1-5.28-5.29A5.27,5.27,0,0,1,207.19,206.58Z"/><path class="cls-7" d="M235.44,206.58a5.29,5.29,0,1,1-5.28-5.29A5.28,5.28,0,0,1,235.44,206.58Z"/><polygon class="cls-5" points="276.78 113.61 288.94 123.42 293.69 105.09 276.78 113.61"/><polygon class="cls-4" points="311.89 101.27 258.23 132.48 224.54 76 311.89 101.27"/><line class="cls-8" x1="301.77" y1="101.23" x2="250.24" y2="85.69"/><polygon class="cls-5" points="282.93 118.31 224.54 76 291.77 112.5 282.93 118.31"/><rect class="cls-3" x="30.82" y="102.62" width="88.24" height="53.23" transform="translate(-38.34 31.84) rotate(-19.2)"/><polyline class="cls-8" points="90.61 147.38 119.24 137.69 107.85 101.23"/><polygon class="cls-3" points="125.36 139.86 75.31 130.3 42.03 168.88 125.36 139.86"/><polygon class="cls-9" points="107.85 89.6 101.95 96.98 75.32 130.3 34.06 120.67 24.83 118.51 30.77 111.23 45.02 93.76 57.33 78.66 76.47 82.8 98.69 87.61 107.85 89.6"/><polygon class="cls-4" points="94.79 76.42 101.95 96.98 75.32 130.3 34.06 120.67 26.89 100.07 94.79 76.42"/><line class="cls-10" x1="42.06" y1="105.7" x2="54.88" y2="101.23"/><line class="cls-10" x1="45.21" y1="114.74" x2="88.85" y2="99.55"/><line class="cls-10" x1="46.97" y1="119.8" x2="90.61" y2="104.6"/><path class="cls-3" d="M321.51,217.53c.7,1.46,3.55,6.87,5.48,9.92,3.82,6,4.83,9.46,3,16.7-1.89,7.41-5.17,14.43-8.53,21.27a137.05,137.05,0,0,1-28.14,38.23c-32.29,31-65.45,27.59-71.05,28.75s-16.13-11.1-16.13-11.1c8.08-5.68,23-11.56,30.26-14.26,0,0,5.38,16.95,32.08-4.46s49.85-47.76,34.86-57C308.32,234.2,321.51,217.53,321.51,217.53Z"/><path class="cls-8" d="M291.77,297s27.69-26.57,35.74-61.62"/><path class="cls-9" d="M303.3,245.56a0,0,0,0,0,0,0c15,9.28-8.16,35.63-34.86,57S236.37,307,236.37,307h0c2.61-1,4.24-1.52,4.24-1.52,10.91,13.52,54.09-36.67,60.15-43.85s1-11.83,1-11.83Z"/><path class="cls-11" d="M303.3,245.56l-1.53,4.27A27.25,27.25,0,0,1,303.3,245.56Z"/><path class="cls-3" d="M206.11,321.3l-6.23-10.09a8.85,8.85,0,0,1,2.33-11.81c5.91-4.3,15-10.07,23.66-12.11A8.85,8.85,0,0,1,236.25,293l4.36,12.5Z"/><path class="cls-3" d="M301.77,249.83l-7.6-4.36a7.16,7.16,0,0,1-3.58-6.65c.46-7,3-20.32,15.14-27.26a7.18,7.18,0,0,1,7.64.33l8.14,5.64S311.54,232.79,301.77,249.83Z"/><path class="cls-12" d="M240.61,305.51a105.5,105.5,0,0,1-34.5,15.79"/><path class="cls-12" d="M301.77,249.83s18-17,19.74-32.3"/><path class="cls-13" d="M297.94,127.4a38.07,38.07,0,0,1,11.42,23.21c.51,4.74.06,9.73-2.24,13.92s-6.7,7.39-11.48,7.38-9.49-3.87-9.66-8.64c-.2-5.25,5.08-9.57,10.34-9.7s10.14,3,13.65,6.89c9.2,10.22,10.43,26.77,2.83,38.24"/><circle class="cls-4" cx="63.23" cy="291.03" r="42"/><path class="cls-8" d="M63.23,252.54A38.49,38.49,0,0,1,101.72,291"/><circle class="cls-7" cx="63.23" cy="291.03" r="33.84" transform="translate(-234.24 305.42) rotate(-80.51)"/><path class="cls-14" d="M63.23,257.19A33.77,33.77,0,0,0,38.07,268.4a33.84,33.84,0,0,1,47.79,47.78,33.83,33.83,0,0,0-22.63-59Z"/><polyline class="cls-15" points="64.44 267.69 64.44 292.78 82.52 292.78"/></g></g></svg>