<svg height="512" viewBox="0 0 64 64" width="512" xmlns="http://www.w3.org/2000/svg"><path d="m53 2h-42a1 1 0 0 0 -1 1v48a1 1 0 0 0 1 1h11.47l-2.82 6.04a1 1 0 0 0 1.25 1.36l3.05-1.11 1.11 3.05a1.007 1.007 0 0 0 .9.66h.04a1 1 0 0 0 .91-.58l3.94-8.48a11.051 11.051 0 0 0 2.3 0l3.94 8.48a1 1 0 0 0 .91.58h.04a1.007 1.007 0 0 0 .9-.66l1.11-3.05 3.05 1.11a1 1 0 0 0 1.25-1.36l-2.82-6.04h11.47a1 1 0 0 0 1-1v-48a1 1 0 0 0 -1-1zm-29.18 54.21-1.33.49 2.65-5.68c.28.18.57.35.86.5zm2.29 2.18-.48-1.33 2.21-4.75c.32.1.64.2.97.28zm5.89-7.39a11 11 0 1 1 11-11 11.007 11.007 0 0 1 -11 11zm5.89 7.39-2.7-5.8c.33-.08.65-.18.97-.28l2.21 4.75zm2.29-2.18-2.18-4.69c.29-.15.58-.32.86-.5l2.65 5.68zm11.82-6.21h-11.41l-.09-.19a13 13 0 1 0 -17 0l-.09.19h-11.41v-46h40z"/><path d="m40.32 37.63a3.422 3.422 0 0 1 -.74-.77 3.318 3.318 0 0 1 -.03-1.12 3.329 3.329 0 0 0 -.62-2.67 3.307 3.307 0 0 0 -2.66-.62 3.367 3.367 0 0 1 -1.13-.03 3.664 3.664 0 0 1 -.77-.74 3.29 3.29 0 0 0 -2.37-1.48 3.29 3.29 0 0 0 -2.37 1.48 3.664 3.664 0 0 1 -.77.74 3.367 3.367 0 0 1 -1.13.03 3.307 3.307 0 0 0 -2.66.62 3.329 3.329 0 0 0 -.62 2.67 3.318 3.318 0 0 1 -.03 1.12 3.422 3.422 0 0 1 -.74.77 3.29 3.29 0 0 0 -1.48 2.37 3.29 3.29 0 0 0 1.48 2.37 3.422 3.422 0 0 1 .74.77 3.318 3.318 0 0 1 .03 1.12 3.329 3.329 0 0 0 .62 2.67 3.307 3.307 0 0 0 2.66.62 3.367 3.367 0 0 1 1.13.03 3.664 3.664 0 0 1 .77.74 3.29 3.29 0 0 0 2.37 1.48 3.29 3.29 0 0 0 2.37-1.48 3.664 3.664 0 0 1 .77-.74 3.367 3.367 0 0 1 1.13-.03 3.307 3.307 0 0 0 2.66-.62 3.329 3.329 0 0 0 .62-2.67 3.318 3.318 0 0 1 .03-1.12 3.422 3.422 0 0 1 .74-.77 3.29 3.29 0 0 0 1.48-2.37 3.29 3.29 0 0 0 -1.48-2.37zm-1.32 3.24a4.266 4.266 0 0 0 -1.27 1.5 4.485 4.485 0 0 0 -.18 2.02 3.588 3.588 0 0 1 -.03 1.12 3.338 3.338 0 0 1 -1.13.04 4.63 4.63 0 0 0 -2.02.18 4.266 4.266 0 0 0 -1.5 1.27c-.21.24-.7.8-.87.8s-.66-.56-.87-.8a4.266 4.266 0 0 0 -1.5-1.27 3.232 3.232 0 0 0 -1.27-.21q-.39 0-.75.03a3.588 3.588 0 0 1 -1.12-.03 3.338 3.338 0 0 1 -.04-1.13 4.485 4.485 0 0 0 -.18-2.02 4.266 4.266 0 0 0 -1.27-1.5c-.24-.21-.8-.7-.8-.87s.56-.66.8-.87a4.266 4.266 0 0 0 1.27-1.5 4.485 4.485 0 0 0 .18-2.02 3.588 3.588 0 0 1 .03-1.12 3.338 3.338 0 0 1 1.13-.04 4.485 4.485 0 0 0 2.02-.18 4.266 4.266 0 0 0 1.5-1.27c.21-.24.7-.8.87-.8s.66.56.87.8a4.266 4.266 0 0 0 1.5 1.27 4.485 4.485 0 0 0 2.02.18 3.588 3.588 0 0 1 1.12.03 3.338 3.338 0 0 1 .04 1.13 4.485 4.485 0 0 0 .18 2.02 4.266 4.266 0 0 0 1.27 1.5c.24.21.8.7.8.87s-.56.66-.8.87z"/><path d="m27 7h10v2h-10z"/><path d="m16 13h32v2h-32z"/><path d="m16 19h32v2h-32z"/></svg>