<?xml version="1.0" encoding="utf-8"?>
<!-- Generator: Adobe Illustrator 23.0.0, SVG Export Plug-In . SVG Version: 6.00 Build 0)  -->
<svg version="1.1" id="Layer_1" focusable="false" xmlns="http://www.w3.org/2000/svg" xmlns:xlink="http://www.w3.org/1999/xlink"
	 x="0px" y="0px" viewBox="0 0 384 512" style="enable-background:new 0 0 384 512;" xml:space="preserve">
<path d="M276.8,269.7l103.3,0l0-159.6c0-10.6-8.1-19.1-18.2-19.2L9.6,91c-10.1,0-18.2,8.5-18.2,19.1l0,268.1
	c0,10.6,8.1,19.1,18.2,19.2l249,0l0-108.5C258.6,278.3,266.8,269.7,276.8,269.7z M287.5,397.4l-4.6,0l0-102.1l97.2,0l0,4.9
	c0,5.1-1.9,10-5.3,13.6l-74.4,78.1C297,395.4,292.3,397.4,287.5,397.4z"/>
</svg>
