<?xml version="1.0" encoding="iso-8859-1"?>
<!-- Generator: Adobe Illustrator 18.0.0, SVG Export Plug-In . SVG Version: 6.00 Build 0)  -->
<!DOCTYPE svg PUBLIC "-//W3C//DTD SVG 1.1//EN" "http://www.w3.org/Graphics/SVG/1.1/DTD/svg11.dtd">
<svg version="1.1" id="Capa_1" xmlns="http://www.w3.org/2000/svg" xmlns:xlink="http://www.w3.org/1999/xlink" x="0px" y="0px"
	 viewBox="0 0 491.8 491.8" style="enable-background:new 0 0 491.8 491.8;" xml:space="preserve">
<path id="XMLID_298_" d="M245.9,0C110.314,0,0,110.315,0,245.9c0,135.585,110.314,245.9,245.9,245.9
	c65.679,0,128.239-26.485,174.683-72.938c7.719-7.72,6.848-20.673-0.98-28.357l-38.809-38.237
	c8.368-11.463,9.469-25.407,2.565-38.654c-9.421-18.087-23.415-32.562-41.565-43.004c-7.001-4.044-13.617-6.02-20.206-6.013
	c-2.565,0-5.153,0.314-7.671,0.909c-8.375,2.041-16.428,5.964-24.612,11.984c-2.563,1.922-5.73,2.88-9.372,2.88
	c-4.444,0-9.251-1.528-12.547-3.973c-23.906-17.82-44.177-38.108-61.997-61.998c-3.49-4.701-6.278-14.926-1.109-21.943
	c6.045-8.175,9.952-16.212,11.984-24.604c2.187-9.042,0.515-18.158-5.088-27.843c-10.449-18.183-24.926-32.16-43.012-41.59
	c-5.859-3.053-11.856-4.615-17.836-4.615c-9.967,0-19.307,4.35-26.992,12.533c-7.064,7.523-13.311,15.49-20.512,25.127
	c-6.599,8.826-6.052,19.019-5.586,28.004l0.016,0.186c0.813,11.415,5.073,24.902,13.029,41.235
	c13.448,27.667,32.547,53.936,58.39,80.301c5.312,5.425,26.477,26.598,31.911,31.91c26.38,25.849,52.648,44.949,80.3,58.397
	c16.341,7.95,29.829,12.21,41.236,13.029l0.192,0.009c2.348,0.111,4.855,0.239,7.299,0.239c5.828,0,13.295-0.706,20.031-5.417
	l25.536,25.161c-36.437,29.804-81.577,46.129-129.275,46.129c-112.895,0-204.745-91.851-204.745-204.745
	c0-112.895,91.851-204.746,204.745-204.746c112.894,0,204.746,91.851,204.746,204.746c0,11.365,9.212,20.577,20.577,20.577
	c11.366,0,20.578-9.212,20.578-20.577C491.8,110.315,381.485,0,245.9,0z"/>
<g>
</g>
<g>
</g>
<g>
</g>
<g>
</g>
<g>
</g>
<g>
</g>
<g>
</g>
<g>
</g>
<g>
</g>
<g>
</g>
<g>
</g>
<g>
</g>
<g>
</g>
<g>
</g>
<g>
</g>
</svg>
