
<svg 
	version="1.1" id="Layer_1" 
	focusable="false" 
	xmlns="http://www.w3.org/2000/svg" xmlns:xlink="http://www.w3.org/1999/xlink"
	 x="0px" y="0px" viewBox="0 0 512 512" style="enable-background:new 0 0 512 512;" xml:space="preserve">
		<path d="M255.4,355.3L254.6,496c0,8.8,7.1,16,15.9,16.1l32,0.2c8.8,0,16-7.1,16.1-15.9l0.8-142.2c0.1-15.9,11.1-30.7,26.8-33.2
		c20-3.2,37.3,12.3,37.2,31.8c-0.1,14.1-9.3,26-22.1,30.3c-6.3,2.1-10.1,8.5-10.2,15.1L351,431c-0.1,9.8,8.7,17.7,18.3,16
	c44.1-8.3,77.9-47.2,78.1-93.8c0.3-57.1-49.5-103-108.1-95.8C291,263.2,255.7,306.6,255.4,355.3z M222.6,495.8l1.9-336
	c0.3-59.7-54.2-107.1-116.2-94.5c-36.2,7.4-65.7,36.5-73.5,72.7c-11.9,55.3,24.3,105.2,74.8,115.3c9.6,2,18.3-6,18.4-15.7l0.2-32.8
	c0-6.7-3.7-13.1-10-15.3c-12.7-4.4-21.8-16.4-21.7-30.5c0.1-19.4,17.6-34.8,37.6-31.4c15.7,2.7,26.5,17.6,26.4,33.6l-1.9,334.2
	c0,8.8,7.1,16,15.9,16.1l32,0.2C215.3,511.8,222.6,504.6,222.6,495.8z M256.8,112l-0.9,156.3c16.7-19.2,39-33,64.2-39.4l0.7-116.5
	c0.2-26.5,21.8-47.9,48.3-47.7s47.9,21.8,47.7,48.3c-0.1,17.9-10.1,33.2-24.6,41.5c-5,2.9-7.6,8.7-7.7,14.5l-0.2,33.8
	c-0.1,10.9,10.7,19.1,21,15.4c50.7-17.5,85.2-70,73-129c-8.5-41.2-41.2-75.3-82.2-85.2C323-13.6,257.2,41.5,256.8,112z"/>
</svg>
